<svg width="24" height="24" viewBox="0 0 24 24" fill="none" xmlns="http://www.w3.org/2000/svg">
    <path d="M22.4024 5.51781C22.6687 6.00165 22.4923 6.60976 22.0085 6.87605C18.6485 8.72528 16.4486 11.5119 15.0823 13.8698C14.4011 15.0454 13.934 16.1028 13.6384 16.8626C13.4907 17.242 13.3863 17.546 13.3198 17.7518C13.2865 17.8546 13.2627 17.9328 13.2478 17.9836C13.2403 18.0089 13.235 18.0274 13.2318 18.0386L13.2286 18.05C13.1186 18.4563 12.7656 18.7511 12.346 18.786C11.9263 18.8209 11.5298 18.5891 11.3542 18.2063L11.3523 18.2023L11.3447 18.1859L11.3123 18.1168C11.2831 18.0551 11.2389 17.9626 11.1804 17.8429C11.0634 17.6035 10.8894 17.2557 10.6639 16.8282C10.2126 15.9722 9.5579 14.8013 8.74533 13.5422C7.09481 10.9849 4.8885 8.21711 2.50766 6.87037C2.02695 6.59846 1.85769 5.98833 2.12961 5.50763C2.40152 5.02692 3.01165 4.85766 3.49235 5.12957C6.32205 6.73021 8.74731 9.85713 10.4257 12.4577C11.1032 13.5074 11.6746 14.4963 12.1173 15.3069C12.4257 14.5996 12.8318 13.7646 13.3519 12.867C14.8321 10.3126 17.2638 7.20449 21.0442 5.12389C21.528 4.8576 22.1361 5.03396 22.4024 5.51781Z" fill="#303F64"/>
</svg>
